name C:\Users\u0101727\Documents\MyRepositories\paper-ad\trackingsimulations_3d\Results\TrackSim\IK_c2.mot
datacolumns 32
datarows 8
range 3.45000000 3.56200000
endheader
time	pelvis_tilt	pelvis_list	pelvis_rotation	pelvis_tx	pelvis_ty	pelvis_tz	hip_flexion_l	hip_adduction_l	hip_rotation_l	hip_flexion_r	hip_adduction_r	hip_rotation_r	knee_angle_l	knee_angle_r	ankle_angle_l	ankle_angle_r	subtalar_angle_l	subtalar_angle_r	lumbar_extension	lumbar_bending	lumbar_rotation	arm_flex_l	arm_add_l	arm_rot_l	arm_flex_r	arm_add_r	arm_rot_r	elbow_flex_l	elbow_flex_r	pro_sup_l	pro_sup_r	
          3.45000000	         -2.16617651	          4.38102674	          4.40959017	         -0.50700411	          0.94266962	         -0.23006390	         15.04973832	          9.18037696	          3.45638530	         13.63525651	         -1.81685689	         -2.19679504	        -22.15023414	        -65.09675079	          5.21506965	        -12.90105431	          5.74336364	        -13.56852029	         -4.52010047	         -4.07515349	         -3.34585089	         -1.83312360	        -15.69938100	         17.86858608	         -4.80420032	        -16.91050889	         12.14510481	         21.29018197	         23.54616981	         86.51662706	         86.51662706	
          3.46600000	         -2.19521054	          4.17170607	          4.34002679	         -0.48870229	          0.94555736	         -0.23060796	         13.64908221	          8.93661273	          3.79545085	         16.82541344	         -1.90301073	         -2.03439367	        -21.99495218	        -66.36922631	          6.86415210	        -10.75945951	          5.94305115	        -12.83612695	         -4.69622751	         -3.93270989	         -3.82167860	         -1.63103896	        -15.90485207	         17.29676096	         -5.00639584	        -16.82618018	         12.39064616	         22.62272338	         23.05477136	         86.51662706	         86.51662706	
          3.48200000	         -2.17249264	          3.88220136	          4.28266952	         -0.47031425	          0.94823533	         -0.23111173	         12.13722487	          8.59450805	          4.12691880	         19.73224695	         -1.90000958	         -1.95732269	        -21.65529466	        -66.65062642	          8.04147341	         -8.85123124	          6.01623394	        -11.88037595	         -4.88879683	         -3.67243165	         -4.29214433	         -1.42318482	        -16.08799346	         16.78766823	         -5.27686394	        -16.76437505	         12.44089109	         23.93726185	         22.63271719	         86.51662706	         86.51662706	
          3.49800000	         -2.11525364	          3.51480869	          4.32643281	         -0.45181607	          0.95056787	         -0.23172295	         10.56431061	          8.19838947	          4.56639737	         22.30768501	         -1.83273609	         -2.04338569	        -21.20045183	        -65.94426819	          8.76456873	         -7.16980716	          5.85487250	        -10.91815573	         -5.08601991	         -3.29225395	         -4.82842607	         -1.20130876	        -16.25399512	         16.38174550	         -5.63847887	        -16.72181700	         12.20352689	         25.21834917	         22.32828090	         86.51662706	         86.51662706	
          3.51400000	         -2.03653198	          3.10348790	          4.43883866	         -0.43318334	          0.95243763	         -0.23237088	          8.94895073	          7.76084638	          5.06064261	         24.54083385	         -1.74058212	         -2.26334720	        -20.66963628	        -64.30610378	          9.21847090	         -5.57739761	          5.56376379	        -10.19949645	         -5.27756231	         -2.84067916	         -5.39103219	         -0.96830903	        -16.42165086	         16.07623557	         -6.07086587	        -16.68295680	         11.70765073	         26.46442401	         22.11369484	         86.51662706	         86.51662706	
          3.53000000	         -1.94088788	          2.68486824	          4.57870336	         -0.41439582	          0.95376059	         -0.23295725	          7.29521960	          7.28774057	          5.51993396	         26.42305172	         -1.64797468	         -2.56961922	        -20.09267958	        -61.79903031	          9.59175566	         -3.94582108	          5.29666342	         -9.92181164	         -5.46379964	         -2.37136284	         -5.94075632	         -0.73032562	        -16.60716994	         15.84659741	         -6.53147168	        -16.63138491	         11.04892492	         27.67062112	         21.92696915	         86.51662706	         86.51662706	
          3.54600000	         -1.82778754	          2.29905475	          4.72222922	         -0.39541987	          0.95449477	         -0.23343433	          5.58748339	          6.80111350	          5.88500803	         27.93725445	         -1.58672319	         -2.92194001	        -19.46375034	        -58.49148309	          9.97620484	         -2.34626312	          5.15619513	        -10.04998300	         -5.65026777	         -1.93599314	         -6.46176309	         -0.49465007	        -16.81613695	         15.67141120	         -6.98145024	        -16.55646540	         10.32948808	         28.81778783	         21.71191662	         86.51662706	         86.51662706	
          3.56200000	         -1.69751759	          1.97542777	          4.86685421	         -0.37622776	          0.95463260	         -0.23380881	          3.81258129	          6.32827084	          6.14539210	         29.07919505	         -1.58659354	         -3.30062679	        -18.77084263	        -54.49103065	         10.38971754	         -1.18787035	          5.17410268	        -10.28029242	         -5.84163547	         -1.56826566	         -6.95836799	         -0.26388793	        -17.04275181	         15.54236833	         -7.39392316	        -16.45539751	          9.62865797	         29.87503880	         21.43391198	         86.51662706	         86.51662706	
